<svg width="992" height="132" viewBox="0 0 992 132" fill="none" xmlns="http://www.w3.org/2000/svg">
<path d="M0.736328 130H62.6113V121.299H10.4043V2.03125H0.736328V130ZM76.6738 130H86.3418V2.03125H76.6738V130ZM110.072 130H118.949V28.3105C118.949 26.2598 118.92 24.0918 118.861 21.8066C118.861 19.5215 118.803 17.3828 118.686 15.3906H119.125C119.652 17.207 120.297 19.082 121.059 21.0156C121.82 22.9492 122.67 24.7949 123.607 26.5527L177.836 130H188.471V2.03125H179.594V103.545C179.594 105.537 179.594 107.617 179.594 109.785C179.652 111.895 179.74 113.945 179.857 115.938H179.418C178.891 114.121 178.246 112.275 177.484 110.4C176.781 108.525 175.932 106.65 174.936 104.775L121.059 2.03125H110.072V130ZM211.322 130H220.199V28.3105C220.199 26.2598 220.17 24.0918 220.111 21.8066C220.111 19.5215 220.053 17.3828 219.936 15.3906H220.375C220.902 17.207 221.547 19.082 222.309 21.0156C223.07 22.9492 223.92 24.7949 224.857 26.5527L279.086 130H289.721V2.03125H280.844V103.545C280.844 105.537 280.844 107.617 280.844 109.785C280.902 111.895 280.99 113.945 281.107 115.938H280.668C280.141 114.121 279.496 112.275 278.734 110.4C278.031 108.525 277.182 106.65 276.186 104.775L222.309 2.03125H211.322V130ZM343.334 130H353.002V69.0918H395.014V60.4785H353.002V10.7324H400.727V2.03125H343.334V130ZM412.24 69.4434C412.24 91.6504 416.312 107.588 424.457 117.256C432.602 126.924 443.266 131.758 456.449 131.758C469.691 131.758 480.385 126.924 488.529 117.256C496.674 107.588 500.746 91.6504 500.746 69.4434V62.5879C500.746 40.3809 496.674 24.4434 488.529 14.7754C480.385 5.10742 469.691 0.273438 456.449 0.273438C443.266 0.273438 432.602 5.10742 424.457 14.7754C416.312 24.4434 412.24 40.3809 412.24 62.5879V69.4434ZM422.084 69.4434V62.5879C422.084 43.0762 425.189 29.2773 431.4 21.1914C437.611 13.0469 445.961 8.97461 456.449 8.97461C466.938 8.97461 475.287 13.0469 481.498 21.1914C487.709 29.2773 490.814 43.0762 490.814 62.5879V69.4434C490.814 88.9551 487.709 102.783 481.498 110.928C475.287 119.014 466.938 123.057 456.449 123.057C445.961 123.057 437.611 119.014 431.4 110.928C425.189 102.783 422.084 88.9551 422.084 69.4434ZM519.818 130H529.486V74.8926H551.986C563.588 74.8926 572.289 71.4941 578.09 64.6973C583.891 57.9004 586.791 49.082 586.791 38.2422C586.791 27.4609 583.891 18.7305 578.09 12.0508C572.289 5.37109 563.588 2.03125 551.986 2.03125H519.818V130ZM529.486 66.3672V10.7324H551.986C561.303 10.791 567.807 13.3398 571.498 18.3789C575.248 23.418 577.123 30.0684 577.123 38.3301C577.123 46.5332 575.248 53.2715 571.498 58.5449C567.807 63.7598 561.303 66.3672 551.986 66.3672H529.486ZM580.551 130H591.537L560.248 69.9707L549.877 70.6738L580.551 130ZM600.15 95.9863C600.15 107.764 603.549 116.67 610.346 122.705C617.143 128.74 626.225 131.758 637.592 131.758C648.9 131.758 657.865 128.711 664.486 122.617C671.107 116.465 674.418 108.379 674.418 98.3594C674.418 88.9844 671.664 81.4551 666.156 75.7715C660.648 70.0293 652.24 64.9609 640.932 60.5664C629.682 56.1719 622.064 52.041 618.08 48.1738C614.096 44.248 612.104 38.916 612.104 32.1777C612.104 24.9121 614.096 19.2285 618.08 15.127C622.064 10.9668 628.451 8.88672 637.24 8.88672C645.443 8.88672 651.684 11.1719 655.961 15.7422C660.297 20.3125 662.465 26.6113 662.465 34.6387V39.0332H672.133V34.6387C672.133 23.623 668.969 15.1562 662.641 9.23828C656.312 3.26172 647.846 0.273438 637.24 0.273438C626.225 0.273438 617.67 3.29102 611.576 9.32617C605.541 15.3613 602.523 23.0664 602.523 32.4414C602.523 42.9883 605.307 50.7227 610.873 55.6445C616.498 60.5078 624.877 65.1074 636.01 69.4434C647.318 73.8379 654.936 78.0566 658.861 82.0996C662.787 86.084 664.75 91.5918 664.75 98.623C664.75 106.064 662.406 112.041 657.719 116.553C653.09 121.006 646.381 123.232 637.592 123.232C628.861 123.232 622.035 121.006 617.113 116.553C612.25 112.041 609.818 105.186 609.818 95.9863V89.834H600.15V95.9863ZM692.963 130H701.928V28.3984C701.928 26.4062 701.84 23.8574 701.664 20.752C701.547 17.5879 701.488 15.6836 701.488 15.0391H701.928C701.928 15.7422 702.338 17.6465 703.158 20.752C704.037 23.8574 704.828 26.4062 705.531 28.3984L742.006 130H751.41L787.621 28.3984C788.324 26.3477 789.027 24.1504 789.73 21.8066C790.492 19.4043 791.078 17.1484 791.488 15.0391H791.928C791.752 17.0313 791.635 19.2578 791.576 21.7188C791.576 24.1797 791.576 26.4062 791.576 28.3984V130H801.156V2.03125H787.973L750.707 106.797C750.004 108.789 749.33 110.781 748.686 112.773C748.1 114.707 747.602 116.758 747.191 118.926H746.84C746.43 116.758 745.902 114.707 745.258 112.773C744.672 110.781 744.027 108.789 743.324 106.797L705.795 2.03125H692.963V130ZM811.791 130H821.283L852.924 23.125C853.627 20.7227 854.242 18.6426 854.77 16.8848C855.297 15.0684 855.883 13.0762 856.527 10.9082H856.791C857.436 13.0762 857.992 15.0684 858.461 16.8848C858.988 18.6426 859.604 20.7227 860.307 23.125L892.475 130H902.318L863.822 2.03125H850.375L811.791 130ZM827.348 93.2617H886.586L884.125 85.1758H829.721L827.348 93.2617ZM912.865 130H921.742V28.3105C921.742 26.2598 921.713 24.0918 921.654 21.8066C921.654 19.5215 921.596 17.3828 921.479 15.3906H921.918C922.445 17.207 923.09 19.082 923.852 21.0156C924.613 22.9492 925.463 24.7949 926.4 26.5527L980.629 130H991.264V2.03125H982.387V103.545C982.387 105.537 982.387 107.617 982.387 109.785C982.445 111.895 982.533 113.945 982.65 115.938H982.211C981.684 114.121 981.039 112.275 980.277 110.4C979.574 108.525 978.725 106.65 977.729 104.775L923.852 2.03125H912.865V130Z" fill="url(#paint0_linear_401_9)"/>
<path d="M0.736328 130H62.6113V121.299H10.4043V2.03125H0.736328V130ZM76.6738 130H86.3418V2.03125H76.6738V130ZM110.072 130H118.949V28.3105C118.949 26.2598 118.92 24.0918 118.861 21.8066C118.861 19.5215 118.803 17.3828 118.686 15.3906H119.125C119.652 17.207 120.297 19.082 121.059 21.0156C121.82 22.9492 122.67 24.7949 123.607 26.5527L177.836 130H188.471V2.03125H179.594V103.545C179.594 105.537 179.594 107.617 179.594 109.785C179.652 111.895 179.74 113.945 179.857 115.938H179.418C178.891 114.121 178.246 112.275 177.484 110.4C176.781 108.525 175.932 106.65 174.936 104.775L121.059 2.03125H110.072V130ZM211.322 130H220.199V28.3105C220.199 26.2598 220.17 24.0918 220.111 21.8066C220.111 19.5215 220.053 17.3828 219.936 15.3906H220.375C220.902 17.207 221.547 19.082 222.309 21.0156C223.07 22.9492 223.92 24.7949 224.857 26.5527L279.086 130H289.721V2.03125H280.844V103.545C280.844 105.537 280.844 107.617 280.844 109.785C280.902 111.895 280.99 113.945 281.107 115.938H280.668C280.141 114.121 279.496 112.275 278.734 110.4C278.031 108.525 277.182 106.65 276.186 104.775L222.309 2.03125H211.322V130ZM343.334 130H353.002V69.0918H395.014V60.4785H353.002V10.7324H400.727V2.03125H343.334V130ZM412.24 69.4434C412.24 91.6504 416.312 107.588 424.457 117.256C432.602 126.924 443.266 131.758 456.449 131.758C469.691 131.758 480.385 126.924 488.529 117.256C496.674 107.588 500.746 91.6504 500.746 69.4434V62.5879C500.746 40.3809 496.674 24.4434 488.529 14.7754C480.385 5.10742 469.691 0.273438 456.449 0.273438C443.266 0.273438 432.602 5.10742 424.457 14.7754C416.312 24.4434 412.24 40.3809 412.24 62.5879V69.4434ZM422.084 69.4434V62.5879C422.084 43.0762 425.189 29.2773 431.4 21.1914C437.611 13.0469 445.961 8.97461 456.449 8.97461C466.938 8.97461 475.287 13.0469 481.498 21.1914C487.709 29.2773 490.814 43.0762 490.814 62.5879V69.4434C490.814 88.9551 487.709 102.783 481.498 110.928C475.287 119.014 466.938 123.057 456.449 123.057C445.961 123.057 437.611 119.014 431.4 110.928C425.189 102.783 422.084 88.9551 422.084 69.4434ZM519.818 130H529.486V74.8926H551.986C563.588 74.8926 572.289 71.4941 578.09 64.6973C583.891 57.9004 586.791 49.082 586.791 38.2422C586.791 27.4609 583.891 18.7305 578.09 12.0508C572.289 5.37109 563.588 2.03125 551.986 2.03125H519.818V130ZM529.486 66.3672V10.7324H551.986C561.303 10.791 567.807 13.3398 571.498 18.3789C575.248 23.418 577.123 30.0684 577.123 38.3301C577.123 46.5332 575.248 53.2715 571.498 58.5449C567.807 63.7598 561.303 66.3672 551.986 66.3672H529.486ZM580.551 130H591.537L560.248 69.9707L549.877 70.6738L580.551 130ZM600.15 95.9863C600.15 107.764 603.549 116.67 610.346 122.705C617.143 128.74 626.225 131.758 637.592 131.758C648.9 131.758 657.865 128.711 664.486 122.617C671.107 116.465 674.418 108.379 674.418 98.3594C674.418 88.9844 671.664 81.4551 666.156 75.7715C660.648 70.0293 652.24 64.9609 640.932 60.5664C629.682 56.1719 622.064 52.041 618.08 48.1738C614.096 44.248 612.104 38.916 612.104 32.1777C612.104 24.9121 614.096 19.2285 618.08 15.127C622.064 10.9668 628.451 8.88672 637.24 8.88672C645.443 8.88672 651.684 11.1719 655.961 15.7422C660.297 20.3125 662.465 26.6113 662.465 34.6387V39.0332H672.133V34.6387C672.133 23.623 668.969 15.1562 662.641 9.23828C656.312 3.26172 647.846 0.273438 637.24 0.273438C626.225 0.273438 617.67 3.29102 611.576 9.32617C605.541 15.3613 602.523 23.0664 602.523 32.4414C602.523 42.9883 605.307 50.7227 610.873 55.6445C616.498 60.5078 624.877 65.1074 636.01 69.4434C647.318 73.8379 654.936 78.0566 658.861 82.0996C662.787 86.084 664.75 91.5918 664.75 98.623C664.75 106.064 662.406 112.041 657.719 116.553C653.09 121.006 646.381 123.232 637.592 123.232C628.861 123.232 622.035 121.006 617.113 116.553C612.25 112.041 609.818 105.186 609.818 95.9863V89.834H600.15V95.9863ZM692.963 130H701.928V28.3984C701.928 26.4062 701.84 23.8574 701.664 20.752C701.547 17.5879 701.488 15.6836 701.488 15.0391H701.928C701.928 15.7422 702.338 17.6465 703.158 20.752C704.037 23.8574 704.828 26.4062 705.531 28.3984L742.006 130H751.41L787.621 28.3984C788.324 26.3477 789.027 24.1504 789.73 21.8066C790.492 19.4043 791.078 17.1484 791.488 15.0391H791.928C791.752 17.0313 791.635 19.2578 791.576 21.7188C791.576 24.1797 791.576 26.4062 791.576 28.3984V130H801.156V2.03125H787.973L750.707 106.797C750.004 108.789 749.33 110.781 748.686 112.773C748.1 114.707 747.602 116.758 747.191 118.926H746.84C746.43 116.758 745.902 114.707 745.258 112.773C744.672 110.781 744.027 108.789 743.324 106.797L705.795 2.03125H692.963V130ZM811.791 130H821.283L852.924 23.125C853.627 20.7227 854.242 18.6426 854.77 16.8848C855.297 15.0684 855.883 13.0762 856.527 10.9082H856.791C857.436 13.0762 857.992 15.0684 858.461 16.8848C858.988 18.6426 859.604 20.7227 860.307 23.125L892.475 130H902.318L863.822 2.03125H850.375L811.791 130ZM827.348 93.2617H886.586L884.125 85.1758H829.721L827.348 93.2617ZM912.865 130H921.742V28.3105C921.742 26.2598 921.713 24.0918 921.654 21.8066C921.654 19.5215 921.596 17.3828 921.479 15.3906H921.918C922.445 17.207 923.09 19.082 923.852 21.0156C924.613 22.9492 925.463 24.7949 926.4 26.5527L980.629 130H991.264V2.03125H982.387V103.545C982.387 105.537 982.387 107.617 982.387 109.785C982.445 111.895 982.533 113.945 982.65 115.938H982.211C981.684 114.121 981.039 112.275 980.277 110.4C979.574 108.525 978.725 106.65 977.729 104.775L923.852 2.03125H912.865V130Z" fill="url(#paint1_linear_401_9)"/>
<path d="M0.736328 130H62.6113V121.299H10.4043V2.03125H0.736328V130ZM76.6738 130H86.3418V2.03125H76.6738V130ZM110.072 130H118.949V28.3105C118.949 26.2598 118.92 24.0918 118.861 21.8066C118.861 19.5215 118.803 17.3828 118.686 15.3906H119.125C119.652 17.207 120.297 19.082 121.059 21.0156C121.82 22.9492 122.67 24.7949 123.607 26.5527L177.836 130H188.471V2.03125H179.594V103.545C179.594 105.537 179.594 107.617 179.594 109.785C179.652 111.895 179.74 113.945 179.857 115.938H179.418C178.891 114.121 178.246 112.275 177.484 110.4C176.781 108.525 175.932 106.65 174.936 104.775L121.059 2.03125H110.072V130ZM211.322 130H220.199V28.3105C220.199 26.2598 220.17 24.0918 220.111 21.8066C220.111 19.5215 220.053 17.3828 219.936 15.3906H220.375C220.902 17.207 221.547 19.082 222.309 21.0156C223.07 22.9492 223.92 24.7949 224.857 26.5527L279.086 130H289.721V2.03125H280.844V103.545C280.844 105.537 280.844 107.617 280.844 109.785C280.902 111.895 280.99 113.945 281.107 115.938H280.668C280.141 114.121 279.496 112.275 278.734 110.4C278.031 108.525 277.182 106.65 276.186 104.775L222.309 2.03125H211.322V130ZM343.334 130H353.002V69.0918H395.014V60.4785H353.002V10.7324H400.727V2.03125H343.334V130ZM412.24 69.4434C412.24 91.6504 416.312 107.588 424.457 117.256C432.602 126.924 443.266 131.758 456.449 131.758C469.691 131.758 480.385 126.924 488.529 117.256C496.674 107.588 500.746 91.6504 500.746 69.4434V62.5879C500.746 40.3809 496.674 24.4434 488.529 14.7754C480.385 5.10742 469.691 0.273438 456.449 0.273438C443.266 0.273438 432.602 5.10742 424.457 14.7754C416.312 24.4434 412.24 40.3809 412.24 62.5879V69.4434ZM422.084 69.4434V62.5879C422.084 43.0762 425.189 29.2773 431.4 21.1914C437.611 13.0469 445.961 8.97461 456.449 8.97461C466.938 8.97461 475.287 13.0469 481.498 21.1914C487.709 29.2773 490.814 43.0762 490.814 62.5879V69.4434C490.814 88.9551 487.709 102.783 481.498 110.928C475.287 119.014 466.938 123.057 456.449 123.057C445.961 123.057 437.611 119.014 431.4 110.928C425.189 102.783 422.084 88.9551 422.084 69.4434ZM519.818 130H529.486V74.8926H551.986C563.588 74.8926 572.289 71.4941 578.09 64.6973C583.891 57.9004 586.791 49.082 586.791 38.2422C586.791 27.4609 583.891 18.7305 578.09 12.0508C572.289 5.37109 563.588 2.03125 551.986 2.03125H519.818V130ZM529.486 66.3672V10.7324H551.986C561.303 10.791 567.807 13.3398 571.498 18.3789C575.248 23.418 577.123 30.0684 577.123 38.3301C577.123 46.5332 575.248 53.2715 571.498 58.5449C567.807 63.7598 561.303 66.3672 551.986 66.3672H529.486ZM580.551 130H591.537L560.248 69.9707L549.877 70.6738L580.551 130ZM600.15 95.9863C600.15 107.764 603.549 116.67 610.346 122.705C617.143 128.74 626.225 131.758 637.592 131.758C648.9 131.758 657.865 128.711 664.486 122.617C671.107 116.465 674.418 108.379 674.418 98.3594C674.418 88.9844 671.664 81.4551 666.156 75.7715C660.648 70.0293 652.24 64.9609 640.932 60.5664C629.682 56.1719 622.064 52.041 618.08 48.1738C614.096 44.248 612.104 38.916 612.104 32.1777C612.104 24.9121 614.096 19.2285 618.08 15.127C622.064 10.9668 628.451 8.88672 637.24 8.88672C645.443 8.88672 651.684 11.1719 655.961 15.7422C660.297 20.3125 662.465 26.6113 662.465 34.6387V39.0332H672.133V34.6387C672.133 23.623 668.969 15.1562 662.641 9.23828C656.312 3.26172 647.846 0.273438 637.24 0.273438C626.225 0.273438 617.67 3.29102 611.576 9.32617C605.541 15.3613 602.523 23.0664 602.523 32.4414C602.523 42.9883 605.307 50.7227 610.873 55.6445C616.498 60.5078 624.877 65.1074 636.01 69.4434C647.318 73.8379 654.936 78.0566 658.861 82.0996C662.787 86.084 664.75 91.5918 664.75 98.623C664.75 106.064 662.406 112.041 657.719 116.553C653.09 121.006 646.381 123.232 637.592 123.232C628.861 123.232 622.035 121.006 617.113 116.553C612.25 112.041 609.818 105.186 609.818 95.9863V89.834H600.15V95.9863ZM692.963 130H701.928V28.3984C701.928 26.4062 701.84 23.8574 701.664 20.752C701.547 17.5879 701.488 15.6836 701.488 15.0391H701.928C701.928 15.7422 702.338 17.6465 703.158 20.752C704.037 23.8574 704.828 26.4062 705.531 28.3984L742.006 130H751.41L787.621 28.3984C788.324 26.3477 789.027 24.1504 789.73 21.8066C790.492 19.4043 791.078 17.1484 791.488 15.0391H791.928C791.752 17.0313 791.635 19.2578 791.576 21.7188C791.576 24.1797 791.576 26.4062 791.576 28.3984V130H801.156V2.03125H787.973L750.707 106.797C750.004 108.789 749.33 110.781 748.686 112.773C748.1 114.707 747.602 116.758 747.191 118.926H746.84C746.43 116.758 745.902 114.707 745.258 112.773C744.672 110.781 744.027 108.789 743.324 106.797L705.795 2.03125H692.963V130ZM811.791 130H821.283L852.924 23.125C853.627 20.7227 854.242 18.6426 854.77 16.8848C855.297 15.0684 855.883 13.0762 856.527 10.9082H856.791C857.436 13.0762 857.992 15.0684 858.461 16.8848C858.988 18.6426 859.604 20.7227 860.307 23.125L892.475 130H902.318L863.822 2.03125H850.375L811.791 130ZM827.348 93.2617H886.586L884.125 85.1758H829.721L827.348 93.2617ZM912.865 130H921.742V28.3105C921.742 26.2598 921.713 24.0918 921.654 21.8066C921.654 19.5215 921.596 17.3828 921.479 15.3906H921.918C922.445 17.207 923.09 19.082 923.852 21.0156C924.613 22.9492 925.463 24.7949 926.4 26.5527L980.629 130H991.264V2.03125H982.387V103.545C982.387 105.537 982.387 107.617 982.387 109.785C982.445 111.895 982.533 113.945 982.65 115.938H982.211C981.684 114.121 981.039 112.275 980.277 110.4C979.574 108.525 978.725 106.65 977.729 104.775L923.852 2.03125H912.865V130Z" fill="#8993A5" fill-opacity="0.5"/>
<defs>
<linearGradient id="paint0_linear_401_9" x1="551.109" y1="68.5" x2="551.012" y2="95.2263" gradientUnits="userSpaceOnUse">
<stop stop-color="white"/>
<stop offset="1" stop-color="#596773"/>
</linearGradient>
<linearGradient id="paint1_linear_401_9" x1="496" y1="-37" x2="496" y2="68.5" gradientUnits="userSpaceOnUse">
<stop stop-color="#596773"/>
<stop offset="1" stop-opacity="0"/>
</linearGradient>
</defs>
</svg>
